<svg xmlns="http://www.w3.org/2000/svg" viewBox="0 0 64.19 64.19"><defs><style>.cls-1{}</style></defs><g id="图层_2" data-name="图层 2"><g id="图层_1-2" data-name="图层 1"><path class="cls-1" d="M32.09,15.63A16.47,16.47,0,1,0,48.55,32.09,16.44,16.44,0,0,0,32.09,15.63Zm0,27.17a10.71,10.71,0,1,1,10.7-10.71A10.73,10.73,0,0,1,32.09,42.8ZM49.23,11.11A3.85,3.85,0,1,0,53.07,15,3.85,3.85,0,0,0,49.23,11.11Z"/><path class="cls-1" d="M64.19,32.09c0-4.43,0-8.82-.21-13.24-.25-5.14-1.42-9.7-5.18-13.46S50.48.46,45.34.21C40.91,0,36.52,0,32.09,0S23.27,0,18.85.21C13.71.46,9.15,1.63,5.39,5.39S.46,13.71.21,18.85C0,23.28,0,27.67,0,32.09s0,8.83.21,13.25C.46,50.48,1.63,55,5.39,58.8S13.71,63.73,18.85,64c4.43.25,8.82.21,13.24.21s8.83,0,13.25-.21c5.14-.25,9.7-1.42,13.46-5.18S63.73,50.48,64,45.34c.25-4.42.21-8.81.21-13.25ZM57.12,51A10.22,10.22,0,0,1,54.7,54.7,10.32,10.32,0,0,1,51,57.13c-4.22,1.68-14.25,1.3-18.93,1.3s-14.72.38-18.94-1.29A11,11,0,0,1,7,51C5.37,46.8,5.75,36.77,5.75,32.09S5.37,17.38,7,13.15A10.24,10.24,0,0,1,9.47,9.48a10.28,10.28,0,0,1,3.68-2.43c4.22-1.67,14.26-1.29,18.94-1.29S46.8,5.38,51,7.05A10.11,10.11,0,0,1,54.7,9.48a10.2,10.2,0,0,1,2.43,3.67c1.67,4.23,1.29,14.26,1.29,18.94S58.8,46.8,57.12,51Z"/></g></g></svg>