<?xml version="1.0" encoding="UTF-8"?>
<svg width="278px" height="279px" viewBox="0 0 278 279" version="1.1" xmlns="http://www.w3.org/2000/svg" xmlns:xlink="http://www.w3.org/1999/xlink">
    <title>编组 7</title>
    <g id="EN" stroke="none" stroke-width="1" fill="none" fill-rule="evenodd">
        <g id="About-Us" transform="translate(-541.000000, -2875.000000)" stroke="#FFFFFF">
            <g id="编组-7" transform="translate(541.000000, 2875.000000)">
                <g id="编组-6" transform="translate(90.000000, 91.000000)" stroke-width="3">
                    <path d="M49.0021618,56.5 C56.9543016,56.5 64.2213516,59.6185304 69.794607,64.7626325 C75.3023246,69.8462435 79.1581756,76.9053668 80.4040113,84.9041884 C72.0178069,92.7429028 61.032158,97.5 49.0021618,97.5 C36.9710565,97.5 25.9844884,92.7420378 17.5999609,84.9029421 C18.8466919,76.9048734 22.7024996,69.8460976 28.2098249,64.7627282 C33.7831152,59.6184718 41.0500999,56.5 49.0021618,56.5 Z" id="形状结合"></path>
                    <circle id="椭圆形备份-2" cx="50" cy="36" r="20.5"></circle>
                    <circle id="椭圆形" cx="49.5" cy="49.5" r="48"></circle>
                </g>
                <g id="编组-6备份" transform="translate(0.000000, 131.000000)">
                    <circle id="椭圆形" fill="#0A1647" cx="9" cy="9" r="8.5"></circle>
                    <path d="M9.00005565,10.5 C10.3870858,10.5 11.6541493,11.0447277 12.6261517,11.9416673 C13.5640783,12.8071627 14.2280096,13.9997604 14.465097,15.3523919 C12.9941733,16.6905898 11.086119,17.5 9.00005565,17.5 C6.91392201,17.5 5.00581906,16.6905403 3.53420628,15.3529163 C3.77165859,14.0003575 4.43563097,12.8075931 5.37360447,11.9419613 C6.34569541,11.0448434 7.61287896,10.5 9.00005565,10.5 L9.00005565,10.5 Z" id="形状结合"></path>
                    <circle id="椭圆形备份-2" cx="9" cy="7" r="3.5"></circle>
                </g>
                <g id="编组-6备份-2" transform="translate(260.000000, 131.000000)">
                    <circle id="椭圆形" fill="#0A1647" cx="9" cy="9" r="8.5"></circle>
                    <path d="M9.00005565,10.5 C10.3870858,10.5 11.6541493,11.0447277 12.6261517,11.9416673 C13.5640783,12.8071627 14.2280096,13.9997604 14.465097,15.3523919 C12.9941733,16.6905898 11.086119,17.5 9.00005565,17.5 C6.91392201,17.5 5.00581906,16.6905403 3.53420628,15.3529163 C3.77165859,14.0003575 4.43563097,12.8075931 5.37360447,11.9419613 C6.34569541,11.0448434 7.61287896,10.5 9.00005565,10.5 L9.00005565,10.5 Z" id="形状结合"></path>
                    <circle id="椭圆形备份-2" cx="9" cy="7" r="3.5"></circle>
                </g>
                <g id="编组-6备份-5" transform="translate(196.000000, 195.000000)">
                    <circle id="椭圆形" fill="#0A1647" cx="9" cy="9" r="8.5"></circle>
                    <path d="M9.00005565,10.5 C10.3870858,10.5 11.6541493,11.0447277 12.6261517,11.9416673 C13.5640783,12.8071627 14.2280096,13.9997604 14.465097,15.3523919 C12.9941733,16.6905898 11.086119,17.5 9.00005565,17.5 C6.91392201,17.5 5.00581906,16.6905403 3.53420628,15.3529163 C3.77165859,14.0003575 4.43563097,12.8075931 5.37360447,11.9419613 C6.34569541,11.0448434 7.61287896,10.5 9.00005565,10.5 L9.00005565,10.5 Z" id="形状结合"></path>
                    <circle id="椭圆形备份-2" cx="9" cy="7" r="3.5"></circle>
                </g>
                <g id="编组-6备份-7" transform="translate(196.000000, 65.000000)">
                    <circle id="椭圆形" fill="#0A1647" cx="9" cy="9" r="8.5"></circle>
                    <path d="M9.00005565,10.5 C10.3870858,10.5 11.6541493,11.0447277 12.6261517,11.9416673 C13.5640783,12.8071627 14.2280096,13.9997604 14.465097,15.3523919 C12.9941733,16.6905898 11.086119,17.5 9.00005565,17.5 C6.91392201,17.5 5.00581906,16.6905403 3.53420628,15.3529163 C3.77165859,14.0003575 4.43563097,12.8075931 5.37360447,11.9419613 C6.34569541,11.0448434 7.61287896,10.5 9.00005565,10.5 L9.00005565,10.5 Z" id="形状结合"></path>
                    <circle id="椭圆形备份-2" cx="9" cy="7" r="3.5"></circle>
                </g>
                <g id="编组-6备份-6" transform="translate(65.000000, 195.000000)">
                    <circle id="椭圆形" fill="#0A1647" cx="9" cy="9" r="8.5"></circle>
                    <path d="M9.00005565,10.5 C10.3870858,10.5 11.6541493,11.0447277 12.6261517,11.9416673 C13.5640783,12.8071627 14.2280096,13.9997604 14.465097,15.3523919 C12.9941733,16.6905898 11.086119,17.5 9.00005565,17.5 C6.91392201,17.5 5.00581906,16.6905403 3.53420628,15.3529163 C3.77165859,14.0003575 4.43563097,12.8075931 5.37360447,11.9419613 C6.34569541,11.0448434 7.61287896,10.5 9.00005565,10.5 L9.00005565,10.5 Z" id="形状结合"></path>
                    <circle id="椭圆形备份-2" cx="9" cy="7" r="3.5"></circle>
                </g>
                <g id="编组-6备份-8" transform="translate(65.000000, 65.000000)">
                    <circle id="椭圆形" fill="#0A1647" cx="9" cy="9" r="8.5"></circle>
                    <path d="M9.00005565,10.5 C10.3870858,10.5 11.6541493,11.0447277 12.6261517,11.9416673 C13.5640783,12.8071627 14.2280096,13.9997604 14.465097,15.3523919 C12.9941733,16.6905898 11.086119,17.5 9.00005565,17.5 C6.91392201,17.5 5.00581906,16.6905403 3.53420628,15.3529163 C3.77165859,14.0003575 4.43563097,12.8075931 5.37360447,11.9419613 C6.34569541,11.0448434 7.61287896,10.5 9.00005565,10.5 L9.00005565,10.5 Z" id="形状结合"></path>
                    <circle id="椭圆形备份-2" cx="9" cy="7" r="3.5"></circle>
                </g>
                <g id="编组-6备份-3" transform="translate(130.000000, 0.000000)">
                    <circle id="椭圆形" fill="#0A1647" cx="9" cy="9" r="8.5"></circle>
                    <path d="M9.00005565,10.5 C10.3870858,10.5 11.6541493,11.0447277 12.6261517,11.9416673 C13.5640783,12.8071627 14.2280096,13.9997604 14.465097,15.3523919 C12.9941733,16.6905898 11.086119,17.5 9.00005565,17.5 C6.91392201,17.5 5.00581906,16.6905403 3.53420628,15.3529163 C3.77165859,14.0003575 4.43563097,12.8075931 5.37360447,11.9419613 C6.34569541,11.0448434 7.61287896,10.5 9.00005565,10.5 L9.00005565,10.5 Z" id="形状结合"></path>
                    <circle id="椭圆形备份-2" cx="9" cy="7" r="3.5"></circle>
                </g>
                <g id="编组-6备份-4" transform="translate(130.000000, 261.000000)">
                    <circle id="椭圆形" fill="#0A1647" cx="9" cy="9" r="8.5"></circle>
                    <path d="M9.00005565,10.5 C10.3870858,10.5 11.6541493,11.0447277 12.6261517,11.9416673 C13.5640783,12.8071627 14.2280096,13.9997604 14.465097,15.3523919 C12.9941733,16.6905898 11.086119,17.5 9.00005565,17.5 C6.91392201,17.5 5.00581906,16.6905403 3.53420628,15.3529163 C3.77165859,14.0003575 4.43563097,12.8075931 5.37360447,11.9419613 C6.34569541,11.0448434 7.61287896,10.5 9.00005565,10.5 L9.00005565,10.5 Z" id="形状结合"></path>
                    <circle id="椭圆形备份-2" cx="9" cy="7" r="3.5"></circle>
                </g>
            </g>
        </g>
    </g>
</svg>