<svg width="157.11" height="46.16" xmlns="http://www.w3.org/2000/svg" version="1.1" xml:space="preserve">
 <g>
  <title>Layer 1</title>
  <g id="svg_1" stroke="null">
   <g id="svg_2" stroke="null">
    <g id="svg_3" stroke="null">
     <g id="svg_4" stroke="null">
      <path class="st0" d="m30.13,19.23c2.53,0 4.94,-0.63 7.23,-1.89c2.29,-1.26 3.44,-3.8 3.44,-7.63c-0.09,-3.55 -1.31,-6.06 -3.66,-7.52c-2.35,-1.46 -5.62,-2.19 -9.8,-2.19l-15.73,0l0,6.83l7.51,0l5.38,0l2.05,0c3.19,0 4.85,1.39 4.99,4.18c0,1.92 -0.43,3.25 -1.28,3.98c-0.85,0.73 -2.18,1.1 -3.97,1.1l-1.79,0l-5.38,0l-7.51,0l0,6.91l7.51,0l5.38,0l1.88,0c4.31,0 6.47,1.86 6.47,5.59c0,2.12 -0.53,3.54 -1.6,4.26c-1.07,0.72 -2.6,1.08 -4.59,1.08l-2.16,0l-5.38,0l-7.51,0l0,6.81l13.63,0c5.06,0 9.24,-0.67 12.53,-2.02c3.29,-1.34 4.94,-4.52 4.94,-9.53c-0.11,-6.63 -4.3,-9.96 -12.58,-9.96z" fill="#0B1547" id="svg_5" stroke="null"/>
      <g id="svg_6" stroke="null">
       <path class="st0" d="m102.4,12.86l0,-0.5l0,-4.02l22.45,0l7.46,-8.33l-42.76,0l0,7.79l0,0.54l0,4.75l0,1.4c4.22,-0.77 8.51,-1.32 12.85,-1.63z" fill="#0B1547" id="svg_7" stroke="null"/>
       <path class="st0" d="m89.56,28.63l0,12.11l12.84,0l0,-8.67l0,-7.89c-4.48,1.22 -8.78,2.71 -12.84,4.45z" fill="#0B1547" id="svg_8" stroke="null"/>
      </g>
      <path class="st0" d="m65.6,40.74c14.1,-13.88 39.06,-23.24 65.71,-23.33c-5.42,-1.08 -11.22,-1.74 -17.31,-1.91c-29.26,-0.85 -56.99,9.64 -71.28,25.24l22.88,0z" fill="#0B1547" id="svg_9" stroke="null"/>
      <g id="svg_10" stroke="null">
       <path class="st0" d="m57.8,25.58l3.92,-10.44l1.93,5.12l0.76,2c3.78,-1.71 7.76,-3.22 11.9,-4.5l-0.78,-2.04l-5.96,-15.7l-11.61,0l-12.87,34.38c3.71,-3.25 7.99,-6.21 12.71,-8.82z" fill="#0B1547" id="svg_11" stroke="null"/>
       <path class="st0" d="m71.02,39.73l0.38,1.01l13.63,0l-3.18,-8.36c-3.97,2.19 -7.6,4.66 -10.83,7.35z" fill="#0B1547" id="svg_12" stroke="null"/>
      </g>
     </g>
     <rect x="7.38" y="0.01" class="st0" width="1.86" height="40.73" fill="#0B1547" id="svg_13" stroke="null"/>
     <rect x="3.69" y="0.01" class="st0" width="1.86" height="40.73" fill="#0B1547" id="svg_14" stroke="null"/>
     <rect x="0" y="0.01" class="st0" width="1.86" height="40.73" fill="#0B1547" id="svg_15" stroke="null"/>
    </g>
   </g>
   <g id="svg_16" stroke="null">
    <path class="st0" d="m119.4,38.06c0,1.68 -1.62,3.15 -3.7,3.15c-1.78,0 -3.83,-0.73 -3.83,-3.21l0,-7.48c0,-1.78 1.53,-3.13 3.79,-3.13c2.14,0 3.74,1.36 3.74,3.25l0,0.76l-2.33,0l0,-0.65c0,-0.76 -0.55,-1.41 -1.44,-1.41c-1.16,0 -1.44,0.67 -1.44,1.58l0,6.95c0,0.78 0.36,1.39 1.41,1.39c0.64,0 1.46,-0.31 1.46,-1.37l0,-0.67l2.33,0l0,0.84l0.01,0z" fill="#0B1547" id="svg_17" stroke="null"/>
    <path class="st0" d="m125.1,40.11l-0.05,0c-0.62,0.71 -1.12,1.11 -2.24,1.11c-1.07,0 -2.51,-0.44 -2.51,-2.58c0,-2.21 0.75,-3.28 3.67,-3.28c0.32,0 0.64,0.04 1.12,0.06l0,-1.01c0,-0.65 -0.3,-1.15 -1.16,-1.15c-0.59,0 -1.19,0.34 -1.32,0.97l-2.26,0c0.07,-0.86 0.43,-1.58 1.05,-2.1c0.62,-0.52 1.48,-0.82 2.53,-0.82c1.94,0 3.49,1.03 3.49,3.05l0,6.74l-2.33,0l0,-0.99l0.01,0zm0,-3.17c-0.25,-0.04 -0.43,-0.06 -0.64,-0.06c-1,0 -1.83,0.34 -1.83,1.37c0,0.74 0.46,1.24 1.21,1.24c0.78,0 1.25,-0.46 1.25,-1.24l0,-1.31l0.01,0z" fill="#0B1547" id="svg_18" stroke="null"/>
    <path class="st0" d="m128.68,31.42l2.33,0l0,0.88c0.59,-0.55 1.05,-0.99 2.21,-0.99c0.94,0 1.62,0.29 2.03,0.92c0.27,0.42 0.39,1.01 0.39,2.08l0,3.68c0,1.39 -0.07,1.95 -0.36,2.35c-0.39,0.52 -0.96,0.88 -2.08,0.88c-0.91,0 -1.64,-0.36 -2.14,-0.99l-0.05,0l0,4.79l-2.33,0l0,-13.6zm4.63,3.15c0,-0.78 -0.34,-1.32 -1.14,-1.32c-0.71,0 -1.16,0.5 -1.16,1.2l0,3.76c0,0.61 0.5,1.05 1.16,1.05c0.89,0 1.14,-0.53 1.14,-1.15l0,-3.54z" fill="#0B1547" id="svg_19" stroke="null"/>
    <path class="st0" d="m137.1,27.51l2.33,0l0,1.95l-2.33,0l0,-1.95zm0,3.91l2.33,0l0,9.68l-2.33,0l0,-9.68z" fill="#0B1547" id="svg_20" stroke="null"/>
    <path class="st0" d="m140.89,28.48l2.33,0l0,2.94l1.43,0l0,1.53l-1.44,0l0,5.36c0,0.9 0.41,0.95 1.44,0.95l0,1.83l-0.96,0c-2.1,0 -2.81,-1.24 -2.81,-2.27l0,-5.88l-1.16,0l0,-1.53l1.16,0l0,-2.93l0.01,0z" fill="#0B1547" id="svg_21" stroke="null"/>
    <path class="st0" d="m149.49,40.11l-0.05,0c-0.62,0.71 -1.12,1.11 -2.24,1.11c-1.07,0 -2.51,-0.44 -2.51,-2.58c0,-2.21 0.75,-3.28 3.67,-3.28c0.32,0 0.64,0.04 1.12,0.06l0,-1.01c0,-0.65 -0.3,-1.15 -1.16,-1.15c-0.59,0 -1.19,0.34 -1.32,0.97l-2.26,0c0.07,-0.86 0.43,-1.58 1.05,-2.1c0.62,-0.52 1.48,-0.82 2.53,-0.82c1.94,0 3.49,1.03 3.49,3.05l0,6.74l-2.33,0l0,-0.99l0.01,0zm0,-3.17c-0.25,-0.04 -0.43,-0.06 -0.64,-0.06c-1,0 -1.83,0.34 -1.83,1.37c0,0.74 0.46,1.24 1.21,1.24c0.78,0 1.25,-0.46 1.25,-1.24l0,-1.31l0.01,0z" fill="#0B1547" id="svg_22" stroke="null"/>
    <path class="st0" d="m152.93,27.51l2.33,0l0,10.86c0,0.73 0.25,0.94 1.14,1.01l0,1.83c-2.14,0 -3.47,-0.46 -3.47,-2.71l0,-10.99z" fill="#0B1547" id="svg_23" stroke="null"/>
   </g>
  </g>
 </g>

</svg>