<svg xmlns="http://www.w3.org/2000/svg" viewBox="0 0 64.61 64.61"><defs><style></style></defs><g id="图层_2" data-name="图层 2"><g id="图层_1-2" data-name="图层 1"><path class="cls-1" d="M32.31,0a32.31,32.31,0,1,0,32.3,32.31A32.32,32.32,0,0,0,32.31,0ZM48.83,25.35c0,.34,0,.7,0,1,0,10.59-8.06,22.78-22.79,22.78a22.71,22.71,0,0,1-12.3-3.59,17.69,17.69,0,0,0,1.93.1,16,16,0,0,0,9.94-3.42,8,8,0,0,1-7.48-5.55,8.83,8.83,0,0,0,3.61-.14,8,8,0,0,1-6.41-7.86v-.1a8.12,8.12,0,0,0,3.61,1A8,8,0,0,1,15.39,23a7.85,7.85,0,0,1,1.09-4A22.76,22.76,0,0,0,33,27.29,8,8,0,0,1,46.67,20,15.77,15.77,0,0,0,51.75,18a8,8,0,0,1-3.52,4.41,16,16,0,0,0,4.62-1.25A16.69,16.69,0,0,1,48.83,25.35Z"/></g></g></svg>