<svg xmlns="http://www.w3.org/2000/svg" viewBox="0 0 535.99 173.89"><defs><style>.cls-1{fill:#191919;}.cls-2{fill:#ff3d27;}</style></defs><g id="图层_2" data-name="图层 2"><g id="图层_1-2" data-name="图层 1"><path class="cls-1" d="M119.28,130s-3.33-5-10.63-1.73S80,130.33,82.3,122.77s12,4.56,20.9-7.87,3.28-19,7.4-20.93,16.87,12.64,5.84,30.25C115.54,124.88,119.28,130,119.28,130Z"/><path class="cls-1" d="M75.07,79.93c-2.84-2.18-8.21-3.77-17.69,1C52.83,83.21,37.76,91.27,35,99a17,17,0,0,0,2,15.77c4.79,7.13,14,11.27,20.29,11.54.53,0,1,0,1.53,0,14.16,0,16.08-9.39,19.48-26l.46-2.24C81.06,87.19,78,82.2,75.07,79.93ZM59.59,123.48c-.68,0-1.38,0-2.13,0a17.69,17.69,0,0,1-2.3-.27c2.36-6.7-2.47-11.86-7.91-12.47-3.87-.43-5.28,2.5-5.78,5a19.17,19.17,0,0,1-1.33-1.53v0s-.84-13.49,9-12.39C58.12,102.76,66,112,59.59,123.48Z"/><path class="cls-2" d="M136.63,125.14s3.21-14.76-13.73-33.39c-7.14-7.86,8.22-18,17.19-4.39C142.13,103.05,143.21,118.62,136.63,125.14Z"/><path class="cls-1" d="M190.46,123.78l-5.49-.56.54-5.24a3.27,3.27,0,0,0-3-3.53l-1.66-.15a3.46,3.46,0,0,0-3.77,2.87l-.73,5.18-5.37-.54a3.77,3.77,0,0,0-4,3.06l-.32,1.74a3.29,3.29,0,0,0,2.87,4l5.58.6-.84,5.91a3.75,3.75,0,0,0,3.18,4.35l1.87.22a3.84,3.84,0,0,0,4.17-3.53l.61-6,5.71.62a3.5,3.5,0,0,0,3.89-3.3l.11-1.8A3.7,3.7,0,0,0,190.46,123.78Z"/><path class="cls-1" d="M173.79,65.43c2-.42,4,.37,4.42,1.79s-.75,3-2.79,3.45-4-.4-4.47-1.88S171.81,65.85,173.79,65.43Z"/><path class="cls-1" d="M190.28,64.14c1.94-.42,4,.37,4.64,1.78s-.45,3-2.45,3.42-4.13-.4-4.71-1.86S188.33,64.56,190.28,64.14Z"/><path class="cls-1" d="M186,61c.54,1.34-.59,2.78-2.54,3.2s-3.94-.36-4.42-1.73.7-2.73,2.59-3.12S185.45,59.66,186,61Z"/><path class="cls-1" d="M187.33,72.55c.59,1.55-.62,3.22-2.71,3.69s-4.25-.44-4.78-2,.74-3.15,2.77-3.6S186.75,71,187.33,72.55Z"/><path class="cls-1" d="M211.91,99.34c-.07-2.89-.29-5.78-.56-8.66A65.29,65.29,0,0,0,210,82.05a51.35,51.35,0,0,0-6.56-16.15,31.58,31.58,0,0,0-5.62-6.75,22.47,22.47,0,0,0-7.6-4.47,21.93,21.93,0,0,0-8.73-1.15A25.34,25.34,0,0,0,173,55.76a21.35,21.35,0,0,0-7.19,5.06,12.75,12.75,0,0,0-2.41,3.82,9.89,9.89,0,0,0-.67,4.51A12.76,12.76,0,0,0,164,73.51a28.45,28.45,0,0,0,2.27,3.78,48.5,48.5,0,0,1,4.54,7.1,12.72,12.72,0,0,1,1.06,7.83,19.22,19.22,0,0,1-1.22,3.86,26.51,26.51,0,0,1-2,3.62,39.65,39.65,0,0,1-2.42,3.4l-2.64,3.43a82.62,82.62,0,0,0-4.79,7.3,56.22,56.22,0,0,0-6.53,16.37,36.89,36.89,0,0,0-.78,9,26.07,26.07,0,0,0,1.91,9,21.68,21.68,0,0,0,13.51,12.47,29,29,0,0,0,9.14,1.43,30.52,30.52,0,0,0,9.17-1.37,27,27,0,0,0,8.21-4.37,34.21,34.21,0,0,0,6.41-6.54,42.3,42.3,0,0,0,4.63-7.7,63.11,63.11,0,0,0,3.26-8.25,90.76,90.76,0,0,0,3.51-17.16A121.69,121.69,0,0,0,211.91,99.34Zm-8.08,33.25a50.83,50.83,0,0,1-7.53,14.56,24.58,24.58,0,0,1-20.25,10.47,24.85,24.85,0,0,1-7.76-1.14,19.13,19.13,0,0,1-6.66-3.71,18.17,18.17,0,0,1-4.47-6.18c-2.12-4.75-2.36-10.36-1.45-15.73a53.24,53.24,0,0,1,5.62-15.61,78.24,78.24,0,0,1,4.38-7.21l2.47-3.47a41.79,41.79,0,0,0,2.43-3.68,30.86,30.86,0,0,0,2-4,20.84,20.84,0,0,0,1.2-4.36,14.66,14.66,0,0,0,0-4.58,16.4,16.4,0,0,0-1.42-4.31,50.53,50.53,0,0,0-4.84-7.25c-1.64-2.27-3.17-4.68-3.37-7.36a9.74,9.74,0,0,1,2.69-7.34,20.18,20.18,0,0,1,6.72-4.79,24.33,24.33,0,0,1,8.05-2.06A20.49,20.49,0,0,1,189.76,56c5.29,1.81,9.35,6,12.22,10.81a42.85,42.85,0,0,1,3.57,7.6,51.73,51.73,0,0,1,2.21,8.11,64.83,64.83,0,0,1,1,8.37c.11,1.94.17,3.88.21,5.82-.35.67-1.65,2.4-5.95,3,3.62.16,5.2,1.06,5.9,3A102.35,102.35,0,0,1,203.83,132.59Z"/><path class="cls-1" d="M131.11,63.8a53,53,0,0,1,3.84,6c1.15,2.07,2.25,4.18,3.19,6.36a71.5,71.5,0,0,1,4.59,13.54A56.54,56.54,0,0,1,144.29,104a45.87,45.87,0,0,1-2.61,14.36,39.83,39.83,0,0,1-7.49,12.54,33.11,33.11,0,0,1-2.53,2.63l-2.75,2.39c-1,.75-2,1.41-2.94,2.11-.5.34-1,.71-1.49,1l-1.57.89A73.46,73.46,0,0,1,96,148.51c9-2.45,17.91-5.72,25.57-10.77l1.44-.93c.48-.31.91-.69,1.36-1,.89-.72,1.81-1.38,2.67-2.12l2.45-2.36a12.23,12.23,0,0,0,1.14-1.24l1.09-1.28a36.84,36.84,0,0,0,6.52-11.64,42.23,42.23,0,0,0,2.26-13.22,71.5,71.5,0,0,0-1.14-13.58A109.61,109.61,0,0,0,136,76.93C134.55,72.52,133,68.12,131.11,63.8Z"/><path class="cls-1" d="M157.92,38a76.33,76.33,0,0,0-17.67-14l-.2-.11c.8-13.56-16.58-22.8-30.2-23.82C97.23-.85,79.51,5,76,16.69c-.43.14-.86.28-1.29.44A97.56,97.56,0,0,0,37.54,42a102.33,102.33,0,0,0-7.92,9.57A13.42,13.42,0,0,0,27.91,51C15.78,47.37,5.37,61.42,1.79,73.55s-2.49,31.16,9.64,34.74l.53.13a81.38,81.38,0,0,0,2.82,17.75,67.47,67.47,0,0,0,9.84,20.94,60.06,60.06,0,0,0,17,16,68.35,68.35,0,0,0,21.76,8.72,94.56,94.56,0,0,0,23.22,2,128.61,128.61,0,0,0,22.94-3,186.81,186.81,0,0,0,22.12-6.31l.32-.12a5.61,5.61,0,0,0-4.35-10.35h0a161,161,0,0,1-20.42,7.15,120.2,120.2,0,0,1-21.11,3.87,81,81,0,0,1-21.22-.76,60.84,60.84,0,0,1-19.8-7,53.69,53.69,0,0,1-15.85-13.72,60.28,60.28,0,0,1-9.8-18.89A78.36,78.36,0,0,1,16,103.43a76.06,76.06,0,0,1,2.46-21.58A93.14,93.14,0,0,1,39.2,43.56,90.23,90.23,0,0,1,55.75,29a80.11,80.11,0,0,1,19.71-9.75,72.82,72.82,0,0,1,43.09-1A94.86,94.86,0,0,1,128.84,22a108.79,108.79,0,0,1,9.95,4.69A96.8,96.8,0,0,1,157,39a.66.66,0,0,0,.91-.94Z"/><path class="cls-1" d="M96.07,29.58c-6.78-1.53-12.74.19-16.34,4.71-4.34,5.44-4.54,14-.54,22.36C81.34,61.12,88.92,76,96.4,78.78h0a16.61,16.61,0,0,0,15.4-1.69c7-4.55,11.24-13.47,11.62-19.56C124.33,42.89,115.64,34,96.07,29.58Zm1.32,46.6a10,10,0,0,1-2.78-1.73c6.14-6.5,2.49-13.84-3.22-15.91-3.38-1.23-5.39.81-6.53,3-.34-.6-.68-1.21-1-1.83,0,0,2.36-13.31,11.68-9.92S110.53,65.91,97.39,76.18Z"/><path class="cls-1" d="M328.76,50,323.3,94.07a13.19,13.19,0,0,1-4.52,6.9,10.51,10.51,0,0,1-6.54,2.72H264l-4.17,27.58H233.69L243.31,54l-4.17-4ZM269.59,63.77l-2.87,26.14h29l4.16-26.14Z"/><path class="cls-1" d="M429.29,73.39H401.72L403,63.77H370l-6.9,53.71h33L397.55,101l-8.33-13.79h37.2L421,131.27H343.69a9.57,9.57,0,0,1-3.73-.72,8.46,8.46,0,0,1-2.94-2,6.65,6.65,0,0,1-1.66-3.09,7.38,7.38,0,0,1,.15-3.8L345.13,50H432Z"/><path class="cls-1" d="M533.27,73.39H505.69L507,63.77H474l-6.89,53.71h33L501.53,101,493.2,87.18h37.19l-5.45,44.09H447.67a9.57,9.57,0,0,1-3.73-.72,8.5,8.5,0,0,1-2.95-2,6.72,6.72,0,0,1-1.65-3.09,7.37,7.37,0,0,1,.14-3.8L449.11,50H536Z"/><path class="cls-1" d="M250.54,143.24l-1.12,10a3,3,0,0,1-.93,1.55,2.06,2.06,0,0,1-1.35.62H237.2l-.86,6.23H231l2-17.45-.86-.91Zm-12.19,3.11-.59,5.91h6l.85-5.91Z"/><path class="cls-1" d="M262.74,151h-3l-.27,1.24h-5.68l.86-4.35h13.91L266.82,160,268,161.6H254.63a1.47,1.47,0,0,1-1.29-.62,2.62,2.62,0,0,1-.43-1.55l.86-5.94h8.52Zm-3.85,5.58-.3,1.89h2.84l.3-1.89Z"/><path class="cls-1" d="M287.24,147.91l-1.72,13.69h-5.68L281.26,151h-3.4l-1.42,10.58h-5.69l1.72-12.78-.86-.91Z"/><path class="cls-1" d="M301,141.36h5.68l-2.54,20.24H291.32A1.45,1.45,0,0,1,290,161a2.62,2.62,0,0,1-.43-1.55L291,147.91h9.08ZM296.26,151l-1.09,7.47h3.61l1.07-7.47Z"/><path class="cls-1" d="M318.67,151h-3l-.27,1.24H309.7l.86-4.35h13.91L322.75,160l1.15,1.56H310.56a1.48,1.48,0,0,1-1.29-.62,2.62,2.62,0,0,1-.43-1.55l.86-5.94h8.52Zm-3.85,5.58-.3,1.89h2.84l.3-1.89Z"/><path class="cls-1" d="M364,148.53h-5.68l.27-2.18h-6.81l-1.42,12.14h6.81l.29-3.74-1.71-3.11h7.66l-1.12,10H346.34a1.77,1.77,0,0,1-.77-.16A1.73,1.73,0,0,1,345,161a1.5,1.5,0,0,1-.34-.69,1.8,1.8,0,0,1,0-.86l2-16.19h17.91Z"/><path class="cls-1" d="M376.88,151h-3l-.27,1.24h-5.68l.86-4.35h13.91L381,160l1.15,1.56H368.77a1.47,1.47,0,0,1-1.29-.62,2.62,2.62,0,0,1-.43-1.55l.86-5.94h8.52ZM373,156.6l-.3,1.89h2.84l.3-1.89Z"/><path class="cls-1" d="M405.91,147.91l-1.69,13.69H399.1L400.52,151h-2.28l-1.42,10.58h-4.53L393.74,151h-2.25L390,161.6H384.9l1.71-12.78-.59-.91Z"/><path class="cls-1" d="M423.34,156h-9.09l-.29,2.5h8l1.42-1.24-.86,4.35H410a1.48,1.48,0,0,1-1.29-.62,2.7,2.7,0,0,1-.43-1.55l1.43-11.52h14.76Zm-8.26-5-.27,1.85h3.41l.29-1.85Z"/><path class="cls-1" d="M464.12,148.53h-5.69l.27-2.18h-6.81l-1.42,12.14h6.81l.3-3.74-1.72-3.11h7.67l-1.13,10H446.48a1.8,1.8,0,0,1-.77-.16,1.73,1.73,0,0,1-.61-.46,1.5,1.5,0,0,1-.34-.69,1.8,1.8,0,0,1,0-.86l2-16.19h17.9Z"/><path class="cls-1" d="M474.59,147.91l-1.3,9.73,3.55-.39,1.16-8.43-.86-.91h6.54L482,161.6h-5.68l.18-1.23-9.27,1.23,1.72-12.78-.86-.91Z"/><path class="cls-1" d="M493.44,147.91l-1.71,13.69h-5.68l1.71-12.78-.86-.91Zm0-.94H488l.29-3.73H494Z"/><path class="cls-1" d="M504.33,141.36l-2.27,17.13,2,3.11h-6a1.48,1.48,0,0,1-1.29-.62,2.7,2.7,0,0,1-.43-1.55l2.28-17.13-.86-.94Z"/><path class="cls-1" d="M518.07,141.36h5.68L521.2,161.6H508.42a1.48,1.48,0,0,1-1.29-.62,2.62,2.62,0,0,1-.43-1.55l1.42-11.52h9.09ZM513.36,151l-1.09,7.47h3.61l1.06-7.47Z"/></g></g></svg>