<svg xmlns="http://www.w3.org/2000/svg" viewBox="0 0 56.22 64.25"><defs><style>.cls-1{}</style></defs><g id="图层_2" data-name="图层 2"><g id="图层_1-2" data-name="图层 1"><path class="cls-1" d="M34,26.9a3.63,3.63,0,1,0,3.31,3.62A3.48,3.48,0,0,0,34,26.9Zm-11.74,0a3.63,3.63,0,0,0,0,7.23,3.63,3.63,0,0,0,0-7.23Z"/><path class="cls-1" d="M49.59,0h-43A6.56,6.56,0,0,0,0,6.63V50.09a6.62,6.62,0,0,0,6.63,6.63H43.07L41.36,50.8l4.12,3.81,3.91,3.62,6.83,6V6.63A6.56,6.56,0,0,0,49.59,0ZM37.24,42s-1.2-1.4-2.1-2.61A10.24,10.24,0,0,0,41,35.54a16.4,16.4,0,0,1-3.72,1.9,21.4,21.4,0,0,1-4.61,1.41,23.28,23.28,0,0,1-8.34,0,32.28,32.28,0,0,1-4.71-1.41,15.37,15.37,0,0,1-2.31-1.1c-.1-.1-.2-.1-.3-.2a.1.1,0,0,1-.1-.1,8.86,8.86,0,0,1-.91-.5,9.7,9.7,0,0,0,5.62,3.81c-1,1.21-2.1,2.71-2.1,2.71-7.13-.2-9.84-4.92-9.84-4.92a43.38,43.38,0,0,1,4.62-18.77,15.72,15.72,0,0,1,9-3.41l.3.4c-5.82,1.71-8.53,4.22-8.53,4.22A17,17,0,0,1,17,18.67a23.74,23.74,0,0,1,7.32-2,4.59,4.59,0,0,0,.51-.1,28.14,28.14,0,0,1,6.52-.1A25.81,25.81,0,0,1,41,19.58s-2.51-2.41-8-4.12l.4-.5a15.72,15.72,0,0,1,9,3.41A43.38,43.38,0,0,1,47,37.14c.1-.1-2.61,4.62-9.74,4.82Z"/></g></g></svg>