<svg xmlns="http://www.w3.org/2000/svg" viewBox="0 0 372.11 50.82"><defs><style>.cls-1{fill:#1858f1;}</style></defs><g id="图层_2" data-name="图层 2"><g id="图层_1-2" data-name="图层 1"><path class="cls-1" d="M10.46,15.83v-5H19.7V21.1A18,18,0,0,1,15,24.18a13.08,13.08,0,0,1-4.84.81,9.9,9.9,0,0,1-5.61-1.46,9.46,9.46,0,0,1-3.37-4.37A17.54,17.54,0,0,1,0,12.5,16.8,16.8,0,0,1,1.31,5.61,9.54,9.54,0,0,1,5.13,1.17,10.32,10.32,0,0,1,10.42,0a12,12,0,0,1,4.8.73A6.34,6.34,0,0,1,17.86,3a10.94,10.94,0,0,1,1.57,3.86L13.67,8.13A4,4,0,0,0,12.46,6a3.25,3.25,0,0,0-2.17-.72A3.63,3.63,0,0,0,7.16,7,9.74,9.74,0,0,0,6,12.41Q6,16.34,7.17,18a3.81,3.81,0,0,0,3.29,1.68,5.2,5.2,0,0,0,1.92-.36,9.72,9.72,0,0,0,2.08-1.24V15.83Z"/><path class="cls-1" d="M27.79,12.74l-5.14-.67a8.61,8.61,0,0,1,.84-2.65,5.1,5.1,0,0,1,1.58-1.67,5.58,5.58,0,0,1,2-.79,13,13,0,0,1,2.8-.28A18.34,18.34,0,0,1,33.78,7a4.71,4.71,0,0,1,2.44,1.41,5.29,5.29,0,0,1,1.08,2.11,9.36,9.36,0,0,1,.39,2.59v7.73a11.92,11.92,0,0,0,.13,1.94,10,10,0,0,0,.55,1.79h-5a7.27,7.27,0,0,1-.4-1,9.84,9.84,0,0,1-.18-1.11,7.32,7.32,0,0,1-2.1,1.81,7.24,7.24,0,0,1-3.31.73,4.89,4.89,0,0,1-3.81-1.45A5.2,5.2,0,0,1,22.23,20a5.38,5.38,0,0,1,.94-3.28,5.87,5.87,0,0,1,3.46-1.92c2-.5,3.32-.86,3.91-1.06a14.67,14.67,0,0,0,1.9-.8A2.73,2.73,0,0,0,32,11.16a1.76,1.76,0,0,0-1.43-.49,3.14,3.14,0,0,0-2,.52A3,3,0,0,0,27.79,12.74Zm4.65,3.53a21.71,21.71,0,0,1-2.31.88,4.86,4.86,0,0,0-2.07,1.07,2,2,0,0,0,0,2.53,1.64,1.64,0,0,0,1.3.5A2.89,2.89,0,0,0,31,20.71a3.14,3.14,0,0,0,1.09-1.33,5.32,5.32,0,0,0,.32-2Z"/><path class="cls-1" d="M41.1.41h5.38V24.58H41.1Z"/><path class="cls-1" d="M54.81,12.74l-5.14-.67a8.61,8.61,0,0,1,.84-2.65,5.1,5.1,0,0,1,1.58-1.67,5.58,5.58,0,0,1,2-.79,13,13,0,0,1,2.8-.28A18.34,18.34,0,0,1,60.8,7a4.71,4.71,0,0,1,2.44,1.41,5.16,5.16,0,0,1,1.08,2.11,9.39,9.39,0,0,1,.4,2.59v7.73a12.13,12.13,0,0,0,.12,1.94,10,10,0,0,0,.55,1.79h-5a7.27,7.27,0,0,1-.4-1,9.84,9.84,0,0,1-.18-1.11,7.19,7.19,0,0,1-2.1,1.81,7.24,7.24,0,0,1-3.31.73,4.89,4.89,0,0,1-3.81-1.45A5.2,5.2,0,0,1,49.25,20a5.38,5.38,0,0,1,.94-3.28,5.87,5.87,0,0,1,3.46-1.92c2-.5,3.32-.86,3.91-1.06a14.67,14.67,0,0,0,1.9-.8,2.8,2.8,0,0,0-.4-1.73,1.8,1.8,0,0,0-1.44-.49,3.14,3.14,0,0,0-2,.52A3.06,3.06,0,0,0,54.81,12.74Zm4.65,3.53a22.38,22.38,0,0,1-2.3.88,4.85,4.85,0,0,0-2.08,1.07,1.91,1.91,0,0,0-.44,1.23,1.88,1.88,0,0,0,.44,1.3,1.65,1.65,0,0,0,1.3.5,2.87,2.87,0,0,0,1.67-.54,3.07,3.07,0,0,0,1.09-1.33,5.32,5.32,0,0,0,.32-2Z"/><path class="cls-1" d="M67.94,7.07h5V9.92a8.11,8.11,0,0,1,2.27-2.49A5,5,0,0,1,78,6.68a4.14,4.14,0,0,1,3.49,1.65,8.46,8.46,0,0,1,1.26,5.12V24.58H77.36V15a4.2,4.2,0,0,0-.49-2.33,1.59,1.59,0,0,0-1.37-.68,1.82,1.82,0,0,0-1.59.92,6.49,6.49,0,0,0-.6,3.31v8.41H67.94Z"/><path class="cls-1" d="M100.71.41V24.58h-5V22a7.63,7.63,0,0,1-1.92,2.23,4.7,4.7,0,0,1-2.59.76,4.75,4.75,0,0,1-4.37-2.72,13.44,13.44,0,0,1-1.51-6.62Q85.29,11.29,87,9a5.07,5.07,0,0,1,4.25-2.3,4.89,4.89,0,0,1,2.27.52,5.43,5.43,0,0,1,1.82,1.59V.41ZM95.33,15.78a5.52,5.52,0,0,0-.7-3.08,2.1,2.1,0,0,0-1.77-1,1.83,1.83,0,0,0-1.57,1,6.27,6.27,0,0,0-.64,3.26,5.87,5.87,0,0,0,.66,3.15,1.89,1.89,0,0,0,1.61,1,2,2,0,0,0,1.72-1A6,6,0,0,0,95.33,15.78Z"/><path class="cls-1" d="M113.43,24.58V.41h10a11.57,11.57,0,0,1,4.23.6A4.7,4.7,0,0,1,130,3.21a8,8,0,0,1,.89,3.91,8.2,8.2,0,0,1-.68,3.47A6.34,6.34,0,0,1,128.31,13a6.43,6.43,0,0,1-2.1.95,5.9,5.9,0,0,1,1.56.89,7.49,7.49,0,0,1,1,1.28,9.34,9.34,0,0,1,.84,1.5l2.89,7H125.7l-3.2-7.39a5.67,5.67,0,0,0-1.08-1.86,2.19,2.19,0,0,0-1.46-.56h-.53v9.81Zm6-14.38H122a7.78,7.78,0,0,0,1.58-.32,1.6,1.6,0,0,0,1-.76,2.66,2.66,0,0,0,.38-1.41,2.52,2.52,0,0,0-.59-1.79,3,3,0,0,0-2.23-.63h-2.63Z"/><path class="cls-1" d="M148.89,17.49H138.13a5,5,0,0,0,.7,2.41,2.35,2.35,0,0,0,2,1.14,2.57,2.57,0,0,0,1.5-.5,4.22,4.22,0,0,0,.94-1.1l5.29.61a8.88,8.88,0,0,1-2.93,3.78A8.86,8.86,0,0,1,140.74,25a8.36,8.36,0,0,1-4.38-1,7.33,7.33,0,0,1-2.65-3.12,11.25,11.25,0,0,1-1.05-5,10.07,10.07,0,0,1,2.11-6.64,7.11,7.11,0,0,1,5.81-2.54,8.67,8.67,0,0,1,4.75,1.13,7.08,7.08,0,0,1,2.65,3.3,14.57,14.57,0,0,1,.91,5.62Zm-5.46-3.21a5.06,5.06,0,0,0-.84-2.79,2.19,2.19,0,0,0-1.79-.84,2.3,2.3,0,0,0-2,1.27,5.42,5.42,0,0,0-.62,2.36Z"/><path class="cls-1" d="M150.41,19.72l5.33-.63a3.44,3.44,0,0,0,.92,1.7,2.37,2.37,0,0,0,1.59.51,2.26,2.26,0,0,0,1.67-.58,1.38,1.38,0,0,0,.46-1.07,1.28,1.28,0,0,0-.6-1.12,9.92,9.92,0,0,0-2.31-.69,19.46,19.46,0,0,1-3.89-1.13A4.37,4.37,0,0,1,151.75,15a5.31,5.31,0,0,1-.75-2.82,5.38,5.38,0,0,1,.81-3A5,5,0,0,1,154,7.29a9.62,9.62,0,0,1,3.78-.61,10.85,10.85,0,0,1,3.7.47,4.74,4.74,0,0,1,2,1.49,8.12,8.12,0,0,1,1.33,2.72l-5.09.63a2.2,2.2,0,0,0-.66-1.24,2.31,2.31,0,0,0-1.53-.53,1.9,1.9,0,0,0-1.33.4,1.31,1.31,0,0,0-.41,1,1.08,1.08,0,0,0,.52,1,7.62,7.62,0,0,0,2.3.59,13,13,0,0,1,4,1.05,4.61,4.61,0,0,1,2,1.93,5.49,5.49,0,0,1,.7,2.75,6.42,6.42,0,0,1-.74,3,5.3,5.3,0,0,1-2.31,2.28A9.17,9.17,0,0,1,158,25q-3.84,0-5.47-1.37A6.41,6.41,0,0,1,150.41,19.72Z"/><path class="cls-1" d="M183.42,17.49H172.65a5.07,5.07,0,0,0,.7,2.41,2.37,2.37,0,0,0,2,1.14,2.59,2.59,0,0,0,1.5-.5,4.22,4.22,0,0,0,.94-1.1l5.29.61a8.88,8.88,0,0,1-2.93,3.78A8.9,8.9,0,0,1,175.27,25a8.36,8.36,0,0,1-4.38-1,7.33,7.33,0,0,1-2.65-3.12,11.25,11.25,0,0,1-1.05-5,10,10,0,0,1,2.11-6.64,7.11,7.11,0,0,1,5.81-2.54,8.69,8.69,0,0,1,4.75,1.13,7.14,7.14,0,0,1,2.65,3.3,14.57,14.57,0,0,1,.91,5.62ZM178,14.28a5.23,5.23,0,0,0-.84-2.79,2.19,2.19,0,0,0-1.79-.84,2.3,2.3,0,0,0-2,1.27,5.42,5.42,0,0,0-.62,2.36Z"/><path class="cls-1" d="M190.78,12.74l-5.13-.67a8.1,8.1,0,0,1,.84-2.65,5,5,0,0,1,1.58-1.67,5.58,5.58,0,0,1,2-.79,12.93,12.93,0,0,1,2.79-.28,18.27,18.27,0,0,1,3.88.33,4.67,4.67,0,0,1,2.44,1.41,5.29,5.29,0,0,1,1.09,2.11,9.36,9.36,0,0,1,.39,2.59v7.73a10.88,10.88,0,0,0,.13,1.94,9.88,9.88,0,0,0,.54,1.79h-5a7,7,0,0,1-.39-1c-.06-.24-.12-.61-.19-1.11a7.16,7.16,0,0,1-2.09,1.81,7.28,7.28,0,0,1-3.32.73,4.85,4.85,0,0,1-3.8-1.45,5.16,5.16,0,0,1-1.3-3.58,5.38,5.38,0,0,1,.94-3.28,5.84,5.84,0,0,1,3.45-1.92c2-.5,3.32-.86,3.92-1.06a15.28,15.28,0,0,0,1.9-.8,2.79,2.79,0,0,0-.41-1.73,1.77,1.77,0,0,0-1.44-.49,3.14,3.14,0,0,0-2,.52A3.06,3.06,0,0,0,190.78,12.74Zm4.66,3.53a23.49,23.49,0,0,1-2.31.88,4.86,4.86,0,0,0-2.07,1.07,1.87,1.87,0,0,0-.45,1.23,1.93,1.93,0,0,0,.44,1.3,1.67,1.67,0,0,0,1.3.5,2.84,2.84,0,0,0,1.67-.54,3.1,3.1,0,0,0,1.1-1.33,5.52,5.52,0,0,0,.32-2Z"/><path class="cls-1" d="M214.36,17.72l5.11.73a9.92,9.92,0,0,1-1.39,3.45,6.77,6.77,0,0,1-2.46,2.27,8,8,0,0,1-3.81.81,11.55,11.55,0,0,1-3.71-.52,6.25,6.25,0,0,1-2.55-1.68,8.63,8.63,0,0,1-1.68-2.73,11.81,11.81,0,0,1-.61-4.15,12,12,0,0,1,.74-4.5A8.39,8.39,0,0,1,205.48,9a6.9,6.9,0,0,1,1.93-1.56,8.87,8.87,0,0,1,4-.8,7.86,7.86,0,0,1,5.23,1.53,8.27,8.27,0,0,1,2.53,4.48l-5.05.85a3.09,3.09,0,0,0-.87-1.7,2.45,2.45,0,0,0-1.68-.56,2.5,2.5,0,0,0-2.16,1.19,6.38,6.38,0,0,0-.82,3.61,5.49,5.49,0,0,0,.82,3.28,2.49,2.49,0,0,0,2.08,1.12,2.52,2.52,0,0,0,1.78-.68A4.29,4.29,0,0,0,214.36,17.72Z"/><path class="cls-1" d="M221.47.41h5.37v8.9a7.57,7.57,0,0,1,2.18-2,5.08,5.08,0,0,1,2.56-.61A4.09,4.09,0,0,1,235,8.34a8.47,8.47,0,0,1,1.26,5.11V24.58h-5.4V15a4.12,4.12,0,0,0-.49-2.33,1.56,1.56,0,0,0-1.37-.68,1.81,1.81,0,0,0-1.58.92,6.36,6.36,0,0,0-.61,3.31v8.41h-5.37Z"/><path class="cls-1" d="M249.1.41h6V24.58h-6Z"/><path class="cls-1" d="M259,7.07h5V9.92a8.36,8.36,0,0,1,2.27-2.49,5,5,0,0,1,2.8-.75,4.15,4.15,0,0,1,3.49,1.65,8.46,8.46,0,0,1,1.26,5.12V24.58h-5.4V15a4.12,4.12,0,0,0-.49-2.33,1.56,1.56,0,0,0-1.37-.68,1.81,1.81,0,0,0-1.58.92,6.36,6.36,0,0,0-.61,3.31v8.41H259Z"/><path class="cls-1" d="M276.09,19.72l5.34-.63a3.37,3.37,0,0,0,.92,1.7,2.33,2.33,0,0,0,1.58.51,2.3,2.3,0,0,0,1.68-.58,1.38,1.38,0,0,0,.46-1.07,1.26,1.26,0,0,0-.61-1.12,9.92,9.92,0,0,0-2.31-.69,19.31,19.31,0,0,1-3.88-1.13A4.33,4.33,0,0,1,277.43,15a5.39,5.39,0,0,1-.74-2.82,5.46,5.46,0,0,1,.8-3,5,5,0,0,1,2.22-1.87,9.64,9.64,0,0,1,3.79-.61,10.89,10.89,0,0,1,3.7.47,4.81,4.81,0,0,1,2,1.49,8.51,8.51,0,0,1,1.33,2.72l-5.1.63a2.2,2.2,0,0,0-.66-1.24,2.31,2.31,0,0,0-1.53-.53,1.88,1.88,0,0,0-1.32.4,1.32,1.32,0,0,0-.42,1,1.09,1.09,0,0,0,.53,1,7.53,7.53,0,0,0,2.29.59,13,13,0,0,1,4,1.05,4.66,4.66,0,0,1,2,1.93A5.59,5.59,0,0,1,291,18.9a6.4,6.4,0,0,1-.73,3A5.41,5.41,0,0,1,288,24.13a9.19,9.19,0,0,1-4.3.85c-2.55,0-4.38-.46-5.46-1.37A6.37,6.37,0,0,1,276.09,19.72Z"/><path class="cls-1" d="M300,.41V7.07h3V12h-3v6.2a4.22,4.22,0,0,0,.17,1.48.94.94,0,0,0,.92.56,5.08,5.08,0,0,0,1.67-.43l.39,4.63a14.32,14.32,0,0,1-3.72.55,5.31,5.31,0,0,1-2.95-.65,3.67,3.67,0,0,1-1.41-1.95,14.24,14.24,0,0,1-.45-4.24V12h-2V7.07h2V3.86Z"/><path class="cls-1" d="M305.74.41h5.37V5h-5.37Zm0,6.66h5.37V24.58h-5.37Z"/><path class="cls-1" d="M321,.41V7.07h3V12h-3v6.2a4.22,4.22,0,0,0,.17,1.48.94.94,0,0,0,.92.56,5.08,5.08,0,0,0,1.67-.43l.39,4.63a14.32,14.32,0,0,1-3.72.55,5.33,5.33,0,0,1-2.95-.65,3.72,3.72,0,0,1-1.41-1.95,14.24,14.24,0,0,1-.45-4.24V12h-2V7.07h2V3.86Z"/><path class="cls-1" d="M341.3,24.58h-5V21.74A8.12,8.12,0,0,1,334,24.23a5,5,0,0,1-2.8.75,4.14,4.14,0,0,1-3.48-1.66,8.44,8.44,0,0,1-1.26-5.1V7.07h5.4V16.7a4.16,4.16,0,0,0,.49,2.34,1.57,1.57,0,0,0,1.37.69,1.8,1.8,0,0,0,1.57-.92,6.27,6.27,0,0,0,.62-3.31V7.07h5.37Z"/><path class="cls-1" d="M351,.41V7.07H354V12H351v6.2a4,4,0,0,0,.17,1.48.93.93,0,0,0,.92.56,5,5,0,0,0,1.66-.43l.4,4.63a14.32,14.32,0,0,1-3.72.55,5.37,5.37,0,0,1-3-.65,3.71,3.71,0,0,1-1.4-1.95,13.84,13.84,0,0,1-.46-4.24V12h-2V7.07h2V3.86Z"/><path class="cls-1" d="M372.11,17.49H361.34a5.07,5.07,0,0,0,.7,2.41,2.36,2.36,0,0,0,2,1.14,2.57,2.57,0,0,0,1.5-.5,3.87,3.87,0,0,0,.94-1.1l5.29.61a8.81,8.81,0,0,1-2.93,3.78A8.86,8.86,0,0,1,364,25a8.41,8.41,0,0,1-4.38-1,7.39,7.39,0,0,1-2.64-3.12,11.25,11.25,0,0,1-1.05-5A10.06,10.06,0,0,1,358,9.22a7.13,7.13,0,0,1,5.81-2.54,8.67,8.67,0,0,1,4.75,1.13,7.1,7.1,0,0,1,2.66,3.3,14.76,14.76,0,0,1,.91,5.62Zm-5.47-3.21a5.15,5.15,0,0,0-.83-2.79,2.2,2.2,0,0,0-1.79-.84,2.3,2.3,0,0,0-2,1.27,5.56,5.56,0,0,0-.62,2.36Z"/><path class="cls-1" d="M15.35,48.46c1.66,0,3.22,0,4.67-.13L19.71,50c-1.43.09-3,.13-4.66.13s-3.2,0-4.66-.13A13.25,13.25,0,0,1,8,49.63a4.7,4.7,0,0,1-1.63-.74A6.38,6.38,0,0,1,5,47.5c-.22.22-.83,1-1.81,2.28l-.31.39L2,48.36l2.1-2.43v-5h-2V39.25H5.79v6.68a4.73,4.73,0,0,0,1.87,1.78,7.75,7.75,0,0,0,3,.63C12.22,48.42,13.79,48.46,15.35,48.46ZM4.89,37.69c-.3-.47-.72-1.09-1.25-1.85s-1-1.34-1.26-1.72l1.35-1c.32.39.74,1,1.26,1.69s.94,1.35,1.26,1.84Zm1.65,8.06A15.21,15.21,0,0,0,7.83,43.3,9.67,9.67,0,0,0,8.39,41c.1-.88.18-2.16.22-3.84H7.13V35.45H8.64c0-1.23,0-2.16,0-2.79H10.2v2.79h3v.67c0,1.35,0,2.86-.07,4.52S13,43.7,13,44.83a3.23,3.23,0,0,1-.48,1.65,1.73,1.73,0,0,1-1.39.47c-.35,0-.87,0-1.55-.08l-.34-1.63a6.38,6.38,0,0,0,1.18.12.85.85,0,0,0,.75-.28,2.68,2.68,0,0,0,.3-1.1q.26-2.8.25-6.17v-.69H10.2A39.42,39.42,0,0,1,10,41.24a11.32,11.32,0,0,1-.65,2.68,19.87,19.87,0,0,1-1.39,2.79Zm7.71-11.48h4.89V46.66H14.25ZM15.8,45h1.77v-9.1H15.8Z"/><path class="cls-1" d="M37.61,44v4.44h2v1.59h-18V48.46h2V44Zm-9.18-7.19H26.57v-1.2h-4.7V34h4.7v-1.4h1.86V34h4.41v-1.4H34.7V34h4.68v1.61H34.7v1.2H32.84v-1.2H28.43Zm-3.38.82V43.2H23.23V37.65Zm2.77,7.94H25.41v2.87h2.41Zm1.05-2.26H27v-6h1.85ZM39.2,38.42V40H32.66a16.15,16.15,0,0,1-1.79,3l-1.53-1a14.81,14.81,0,0,0,1.59-2.46,13.17,13.17,0,0,0,1-2.63l1.65.39c-.13.5-.24.87-.33,1.12Zm-9.72,10h2.33V45.59H29.48Zm7.4-4.79c-.7-.49-1.77-1.17-3.2-2.07l-.33-.21.9-1.26c.56.33,1.75,1.07,3.56,2.22Zm-3.43,4.79h2.43V45.59H33.45Z"/><path class="cls-1" d="M48,48.86H42.88v-6c-.36.54-.75,1.08-1.18,1.61L41,42.71a18.54,18.54,0,0,0,2-3.44,19.68,19.68,0,0,0,1.25-3.78H41.64V33.76h6.92v1.73H45.94a20.64,20.64,0,0,1-1.18,3.74H48Zm-3.4-1.73H46.3V41H44.55Zm14.8-6.27v1.73H57.07v7.94H55.36V42.59h-3A20,20,0,0,1,52,45.94a8.45,8.45,0,0,1-.9,2.39,15,15,0,0,1-1.84,2.49L47.83,49.7a16,16,0,0,0,1.67-2.17,6.85,6.85,0,0,0,.83-2.05,15.93,15.93,0,0,0,.31-2.89H48.71V40.86h1.95V35.32H49.3V33.59H59v1.73h-2v5.54Zm-7,0h3V35.32h-3v5.54Z"/><path class="cls-1" d="M78.86,45.36c0,.38,0,.89,0,1.55s-.06,1.11-.09,1.38a2.32,2.32,0,0,1-.56,1.58,3,3,0,0,1-1.72.54l-1,0-1,0a2.13,2.13,0,0,1-1.51-.6,2.51,2.51,0,0,1-.48-1.72V44H68.94A7.06,7.06,0,0,1,68,46.79,6.73,6.73,0,0,1,66,48.85a21.75,21.75,0,0,1-3.74,1.89l-1.07-1.65a22,22,0,0,0,3.36-1.56A5.72,5.72,0,0,0,66.28,46a4.84,4.84,0,0,0,.77-2H62.71V42.31h4.46l.06-1.51,0-.69h1.8l0,.79c0,.29,0,.76,0,1.41h5.31v5.27a1.48,1.48,0,0,0,.15.78.8.8,0,0,0,.62.3l.57,0a1.92,1.92,0,0,0,1.11-.22,1.15,1.15,0,0,0,.3-.92c0-.34,0-.76.06-1.25s0-.92,0-1.29ZM68.7,38.66c-.88.51-1.91,1.06-3.08,1.65s-2.32,1.12-3.42,1.61l-.71-1.53c1.06-.45,2.17-1,3.34-1.56s2.18-1.14,3-1.65ZM63.79,36.3v2.08H62V34.63h7.21l-.84-2,2-.35c.33.68.67,1.45,1,2.32h6.61v3.75H76V36.3Zm8.05.9c.92.46,2,1,3.17,1.62l3.24,1.72-.71,1.59q-1.1-.65-3.18-1.74c-1.39-.74-2.48-1.31-3.28-1.71Z"/><path class="cls-1" d="M85.46,39.5a11.61,11.61,0,0,1,1.09,2.37,7.37,7.37,0,0,1,.35,2.23,4.07,4.07,0,0,1-.5,2.29,1.83,1.83,0,0,1-1.57.7,5.62,5.62,0,0,1-1.17-.1l-.34-1.75a4.33,4.33,0,0,0,.94.14A.75.75,0,0,0,85,45a3.13,3.13,0,0,0,.22-1.45,4.74,4.74,0,0,0-.35-1.7,10.18,10.18,0,0,0-1.09-2l1.3-4.62H82.93V50.51H81.26V33.45h5.48V35.2Zm13.13,6.33c0,.65,0,1.4-.08,2.24A2.72,2.72,0,0,1,98,49.74a1.92,1.92,0,0,1-1.33.57,5,5,0,0,1-.78,0,5.45,5.45,0,0,1-.79,0,2,2,0,0,1-1.41-.56,2.51,2.51,0,0,1-.41-1.64V43.92H91.44v.3a8.26,8.26,0,0,1-.37,2.7,4.92,4.92,0,0,1-1.21,1.92,14.33,14.33,0,0,1-2.47,1.84l-1.1-1.39a11.79,11.79,0,0,0,2.13-1.45,3.46,3.46,0,0,0,1-1.48,7.45,7.45,0,0,0,.32-2.26v-.18H87.51V42.25H98.18v1.67H95V47.6a1.34,1.34,0,0,0,.15.74.67.67,0,0,0,.52.26l.43,0,.46,0a.47.47,0,0,0,.37-.27,2.41,2.41,0,0,0,.16-.85c0-.54.06-1.18.06-1.93ZM89,36.2v1.91H87.39V34.49h4.36L91,32.7l1.87-.29c.13.25.41.94.83,2.08h4.34v3.62H96.41V36.2Zm7.78,3.95H88.49V38.5h8.29Z"/></g></g></svg>