<svg xmlns="http://www.w3.org/2000/svg" viewBox="0 0 265.86 31.69"><defs><style>.cls-1{fill:#1858f1;}</style></defs><g id="图层_2" data-name="图层 2"><g id="图层_1-2" data-name="图层 1"><path class="cls-1" d="M0,.41H9.82l3.79,14.71L17.37.41h9.81V24.58H21.07V6.15L16.36,24.58H10.82L6.12,6.15V24.58H0Z"/><path class="cls-1" d="M37.62,12.74l-6.41-.67a7.29,7.29,0,0,1,1-2.65,5.88,5.88,0,0,1,2-1.67A8.19,8.19,0,0,1,36.76,7a20.18,20.18,0,0,1,3.5-.28A28.35,28.35,0,0,1,45.1,7a6.3,6.3,0,0,1,3,1.41,4.92,4.92,0,0,1,1.36,2.11A7.53,7.53,0,0,1,50,13.12v7.73a8.93,8.93,0,0,0,.16,1.94,8.53,8.53,0,0,0,.68,1.79h-6.3a6.66,6.66,0,0,1-.49-1,7.9,7.9,0,0,1-.23-1.11,8.72,8.72,0,0,1-2.62,1.81,11,11,0,0,1-4.14.73,6.93,6.93,0,0,1-4.76-1.46A4.59,4.59,0,0,1,30.68,20a4.67,4.67,0,0,1,1.17-3.28,7.91,7.91,0,0,1,4.32-1.92c2.52-.5,4.15-.85,4.9-1.06a22.85,22.85,0,0,0,2.37-.8,2.37,2.37,0,0,0-.51-1.73,2.57,2.57,0,0,0-1.8-.49,4.66,4.66,0,0,0-2.47.52A2.88,2.88,0,0,0,37.62,12.74Zm5.82,3.53c-.92.33-1.89.62-2.89.88A6.6,6.6,0,0,0,38,18.22a1.64,1.64,0,0,0-.56,1.23,1.68,1.68,0,0,0,.55,1.3,2.36,2.36,0,0,0,1.62.5,4.23,4.23,0,0,0,2.09-.54A3.38,3.38,0,0,0,43,19.38a4.57,4.57,0,0,0,.4-2Z"/><path class="cls-1" d="M52.09,7.07h7.08l3.62,11.66L66.14,7.07h6.61L65.81,25.78a11.42,11.42,0,0,1-2.43,4.32c-1.16,1.06-2.94,1.59-5.32,1.59a39.46,39.46,0,0,1-4.48-.4l-.53-4.68a10.55,10.55,0,0,0,3.23.46,3.1,3.1,0,0,0,1.92-.55,4.09,4.09,0,0,0,1.24-1.94Z"/><path class="cls-1" d="M82.11,7.07h3.2V12h-3.2v12.6H75.39V12H72.88V7.07h2.51V6.28a13.9,13.9,0,0,1,.23-2.36,4.77,4.77,0,0,1,.86-2.1A4.6,4.6,0,0,1,78.27.5,8.77,8.77,0,0,1,81.62,0a46.66,46.66,0,0,1,5.13.41L86,4.47a13.05,13.05,0,0,0-2-.2,2.18,2.18,0,0,0-1.3.3,1.69,1.69,0,0,0-.56,1A8,8,0,0,0,82.11,7.07Z"/><path class="cls-1" d="M88,.41h6.72V24.58H88Z"/><path class="cls-1" d="M98.21,15.88a8.78,8.78,0,0,1,2.7-6.61,10.1,10.1,0,0,1,7.3-2.59c3.51,0,6.16,1,8,3.05a8.81,8.81,0,0,1,2.16,6,8.82,8.82,0,0,1-2.68,6.62A10.25,10.25,0,0,1,108.23,25a10.4,10.4,0,0,1-6.83-2.15A8.6,8.6,0,0,1,98.21,15.88Zm6.72,0a5.29,5.29,0,0,0,.95,3.46,3.11,3.11,0,0,0,4.76,0,5.49,5.49,0,0,0,.93-3.55,5.18,5.18,0,0,0-.93-3.38,2.93,2.93,0,0,0-2.33-1.12,3,3,0,0,0-2.42,1.13A5.21,5.21,0,0,0,104.93,15.86Z"/><path class="cls-1" d="M119,7.07h6.48l2.81,11,3.55-11h6.07l3.7,11.05,2.82-11h6.45l-6.45,17.51h-6l-3.55-10.53-3.42,10.53h-6Z"/><path class="cls-1" d="M171.86,17.49H158.41a4.36,4.36,0,0,0,.87,2.41A3.19,3.19,0,0,0,161.82,21a3.81,3.81,0,0,0,1.88-.5,4.46,4.46,0,0,0,1.17-1.1l6.61.61a9.41,9.41,0,0,1-3.66,3.78A13.29,13.29,0,0,1,161.67,25a12.5,12.5,0,0,1-5.47-1,8,8,0,0,1-3.3-3.11,9.35,9.35,0,0,1-1.31-5,8.8,8.8,0,0,1,2.62-6.64,10,10,0,0,1,7.27-2.54,13,13,0,0,1,5.93,1.13,7.72,7.72,0,0,1,3.32,3.3,12.15,12.15,0,0,1,1.13,5.62ZM165,14.28a4.46,4.46,0,0,0-1-2.79,3.29,3.29,0,0,0-4.79.43,4.62,4.62,0,0,0-.77,2.36Z"/><path class="cls-1" d="M175,7.07h6.28V9.94a6.87,6.87,0,0,1,1.87-2.56,4,4,0,0,1,2.39-.7,7,7,0,0,1,3.24.92l-2.07,4.78a5.25,5.25,0,0,0-1.88-.49A2.34,2.34,0,0,0,182.79,13q-1,1.55-1,5.74v5.87H175Z"/><path class="cls-1" d="M201.64.41h7.46V18.63h11.66v5.95H201.64Z"/><path class="cls-1" d="M229.83,12.74l-6.42-.67a7.28,7.28,0,0,1,1.05-2.65,5.78,5.78,0,0,1,2-1.67A8.11,8.11,0,0,1,229,7a20.15,20.15,0,0,1,3.49-.28,28.4,28.4,0,0,1,4.85.33,6.3,6.3,0,0,1,3.05,1.41,5,5,0,0,1,1.35,2.11,7.56,7.56,0,0,1,.5,2.59v7.73a9.75,9.75,0,0,0,.15,1.94,9.28,9.28,0,0,0,.69,1.79h-6.3a5.83,5.83,0,0,1-.49-1,6.67,6.67,0,0,1-.23-1.11,8.75,8.75,0,0,1-2.63,1.81,10.92,10.92,0,0,1-4.13.73,6.92,6.92,0,0,1-4.76-1.46A4.59,4.59,0,0,1,222.89,20a4.67,4.67,0,0,1,1.17-3.28,7.91,7.91,0,0,1,4.32-1.92c2.51-.5,4.14-.85,4.89-1.06a22.21,22.21,0,0,0,2.38-.8,2.37,2.37,0,0,0-.51-1.73,2.59,2.59,0,0,0-1.8-.49,4.64,4.64,0,0,0-2.47.52A2.88,2.88,0,0,0,229.83,12.74Zm5.82,3.53c-.93.33-1.89.62-2.89.88a6.75,6.75,0,0,0-2.59,1.07,1.68,1.68,0,0,0-.56,1.23,1.71,1.71,0,0,0,.55,1.3,2.37,2.37,0,0,0,1.63.5,4.16,4.16,0,0,0,2.08-.54,3.32,3.32,0,0,0,1.37-1.33,4.43,4.43,0,0,0,.41-2Z"/><path class="cls-1" d="M246.59.41h6.78V8.79a6.67,6.67,0,0,1,2.28-1.59,7.39,7.39,0,0,1,2.83-.52A6.83,6.83,0,0,1,263.77,9c1.4,1.53,2.09,3.73,2.09,6.6a12.43,12.43,0,0,1-.95,5,7.12,7.12,0,0,1-2.65,3.27A6.79,6.79,0,0,1,258.51,25a7,7,0,0,1-3.23-.76A8.53,8.53,0,0,1,252.87,22v2.59h-6.28Zm6.73,15.37a5.06,5.06,0,0,0,.85,3.27,2.66,2.66,0,0,0,2.15,1,2.53,2.53,0,0,0,2-1,5.41,5.41,0,0,0,.81-3.36,4.74,4.74,0,0,0-.8-3.05,2.4,2.4,0,0,0-1.93-1,2.84,2.84,0,0,0-2.24,1A4.7,4.7,0,0,0,253.32,15.78Z"/></g></g></svg>