<?xml version="1.0" encoding="utf-8"?>
<!-- Generator: Adobe Illustrator 25.3.1, SVG Export Plug-In . SVG Version: 6.00 Build 0)  -->
<svg version="1.1" id="图层_1" xmlns="http://www.w3.org/2000/svg" xmlns:xlink="http://www.w3.org/1999/xlink" x="0px" y="0px"
	 viewBox="0 0 63.9 63.9" style="enable-background:new 0 0 63.9 63.9;" xml:space="preserve">
<style type="text/css"> 
</style>
<g id="图层_2_1_">
	<g id="图层_1-2">
		<path class="st0" d="M42.4,46.6l5.2-24.7c0.5-2.2-0.8-3-2.2-2.5L14.6,31.3c-2.1,0.8-2.1,2-0.4,2.5l7.9,2.5l18.3-11.5
			c0.9-0.6,1.7-0.2,1,0.3L26.7,38.5l-0.6,8.1c0.6,0,1.2-0.3,1.6-0.8l3.9-3.7l8,5.9C41,48.8,42,48.4,42.4,46.6L42.4,46.6z M63.9,32
			c0,17.7-14.3,32-32,32s-32-14.3-32-32s14.3-32,32-32c0,0,0,0,0.1,0C49.6,0,63.9,14.4,63.9,32z"/>
	</g>
</g>
</svg>
