<?xml version="1.0" encoding="utf-8"?>
<!-- Generator: Adobe Illustrator 25.3.1, SVG Export Plug-In . SVG Version: 6.00 Build 0)  -->
<svg version="1.1" id="图层_1" xmlns="http://www.w3.org/2000/svg" xmlns:xlink="http://www.w3.org/1999/xlink" x="0px" y="0px"
	 viewBox="0 0 219.11 106.16" style="enable-background:new 0 0 219.11 106.16;" xml:space="preserve">
<style type="text/css">
	.st0{fill:#0B1547;}
</style>
<g>
	<g>
		<g>
			<g>
				<path class="st0" d="M61.48,49.8c2.53,0,4.94-0.63,7.23-1.89c2.29-1.26,3.44-3.8,3.44-7.63c-0.09-3.55-1.31-6.06-3.66-7.52
					c-2.35-1.46-5.62-2.19-9.8-2.19H42.96v6.83h7.51h5.38h2.05c3.19,0,4.85,1.39,4.99,4.18c0,1.92-0.43,3.25-1.28,3.98
					c-0.85,0.73-2.18,1.1-3.97,1.1h-1.79h-5.38h-7.51v6.91h7.51h5.38h1.88c4.31,0,6.47,1.86,6.47,5.59c0,2.12-0.53,3.54-1.6,4.26
					c-1.07,0.72-2.6,1.08-4.59,1.08h-2.16h-5.38h-7.51v6.81h13.63c5.06,0,9.24-0.67,12.53-2.02c3.29-1.34,4.94-4.52,4.94-9.53
					C73.95,53.13,69.76,49.8,61.48,49.8z"/>
				<g>
					<path class="st0" d="M133.75,43.43v-0.5v-4.02h22.45l7.46-8.33h-42.76v7.79v0.54v4.75v1.4
						C125.12,44.29,129.41,43.74,133.75,43.43z"/>
					<path class="st0" d="M120.91,59.2v12.11h12.84v-8.67v-7.89C129.27,55.97,124.97,57.46,120.91,59.2z"/>
				</g>
				<path class="st0" d="M96.95,71.31c14.1-13.88,39.06-23.24,65.71-23.33c-5.42-1.08-11.22-1.74-17.31-1.91
					c-29.26-0.85-56.99,9.64-71.28,25.24H96.95z"/>
				<g>
					<path class="st0" d="M89.15,56.15l3.92-10.44L95,50.83l0.76,2c3.78-1.71,7.76-3.22,11.9-4.5l-0.78-2.04l-5.96-15.7H89.31
						L76.44,64.97C80.15,61.72,84.43,58.76,89.15,56.15z"/>
					<path class="st0" d="M102.37,70.3l0.38,1.01h13.63l-3.18-8.36C109.23,65.14,105.6,67.61,102.37,70.3z"/>
				</g>
			</g>
			<rect x="38.73" y="30.58" class="st0" width="1.86" height="40.73"/>
			<rect x="35.04" y="30.58" class="st0" width="1.86" height="40.73"/>
			<rect x="31.35" y="30.58" class="st0" width="1.86" height="40.73"/>
		</g>
	</g>
	<g>
		<path class="st0" d="M150.75,68.63c0,1.68-1.62,3.15-3.7,3.15c-1.78,0-3.83-0.73-3.83-3.21v-7.48c0-1.78,1.53-3.13,3.79-3.13
			c2.14,0,3.74,1.36,3.74,3.25v0.76h-2.33v-0.65c0-0.76-0.55-1.41-1.44-1.41c-1.16,0-1.44,0.67-1.44,1.58v6.95
			c0,0.78,0.36,1.39,1.41,1.39c0.64,0,1.46-0.31,1.46-1.37v-0.67h2.33V68.63z"/>
		<path class="st0" d="M156.45,70.68h-0.05c-0.62,0.71-1.12,1.11-2.24,1.11c-1.07,0-2.51-0.44-2.51-2.58c0-2.21,0.75-3.28,3.67-3.28
			c0.32,0,0.64,0.04,1.12,0.06v-1.01c0-0.65-0.3-1.15-1.16-1.15c-0.59,0-1.19,0.34-1.32,0.97h-2.26c0.07-0.86,0.43-1.58,1.05-2.1
			c0.62-0.52,1.48-0.82,2.53-0.82c1.94,0,3.49,1.03,3.49,3.05v6.74h-2.33V70.68z M156.45,67.51c-0.25-0.04-0.43-0.06-0.64-0.06
			c-1,0-1.83,0.34-1.83,1.37c0,0.74,0.46,1.24,1.21,1.24c0.78,0,1.25-0.46,1.25-1.24V67.51z"/>
		<path class="st0" d="M160.03,61.99h2.33v0.88c0.59-0.55,1.05-0.99,2.21-0.99c0.94,0,1.62,0.29,2.03,0.92
			c0.27,0.42,0.39,1.01,0.39,2.08v3.68c0,1.39-0.07,1.95-0.36,2.35c-0.39,0.52-0.96,0.88-2.08,0.88c-0.91,0-1.64-0.36-2.14-0.99
			h-0.05v4.79h-2.33V61.99z M164.66,65.14c0-0.78-0.34-1.32-1.14-1.32c-0.71,0-1.16,0.5-1.16,1.2v3.76c0,0.61,0.5,1.05,1.16,1.05
			c0.89,0,1.14-0.53,1.14-1.15V65.14z"/>
		<path class="st0" d="M168.45,58.08h2.33v1.95h-2.33V58.08z M168.45,61.99h2.33v9.68h-2.33V61.99z"/>
		<path class="st0" d="M172.24,59.05h2.33v2.94H176v1.53h-1.44v5.36c0,0.9,0.41,0.95,1.44,0.95v1.83h-0.96
			c-2.1,0-2.81-1.24-2.81-2.27v-5.88h-1.16v-1.53h1.16V59.05z"/>
		<path class="st0" d="M180.84,70.68h-0.05c-0.62,0.71-1.12,1.11-2.24,1.11c-1.07,0-2.51-0.44-2.51-2.58c0-2.21,0.75-3.28,3.67-3.28
			c0.32,0,0.64,0.04,1.12,0.06v-1.01c0-0.65-0.3-1.15-1.16-1.15c-0.59,0-1.19,0.34-1.32,0.97h-2.26c0.07-0.86,0.43-1.58,1.05-2.1
			c0.62-0.52,1.48-0.82,2.53-0.82c1.94,0,3.49,1.03,3.49,3.05v6.74h-2.33V70.68z M180.84,67.51c-0.25-0.04-0.43-0.06-0.64-0.06
			c-1,0-1.83,0.34-1.83,1.37c0,0.74,0.46,1.24,1.21,1.24c0.78,0,1.25-0.46,1.25-1.24V67.51z"/>
		<path class="st0" d="M184.28,58.08h2.33v10.86c0,0.73,0.25,0.94,1.14,1.01v1.83c-2.14,0-3.47-0.46-3.47-2.71V58.08z"/>
	</g>
</g>
</svg>
